<svg xmlns="http://www.w3.org/2000/svg" width="500" height="500" viewBox="0 0 500 500"><g transform="translate(195,203.8494783932823)translate(89.09546061415098,37.23985613500535)rotate(0)translate(-89.09546061415098,-37.23985613500535) scale(1.7903776987983355,1.7903776987983355)" opacity="1"><defs class="defs"/><path transform="translate(-0.237,-29.199999999999996)" d="M80.125,58.631c1.27,0 2.896,-0.839 3.633,-1.874l2.973,-4.179h-28.793l-4.305,6.053zM86.686,49.528c1.27,0 2.896,-0.839 3.633,-1.875l2.972,-4.179h-28.847l-4.305,6.054zM13.27,52.578l2.973,4.179c0.735,1.035 2.363,1.874 3.632,1.874h26.492l-4.305,-6.053zM6.71,43.475l2.972,4.179c0.735,1.036 2.363,1.875 3.632,1.875h26.546l-4.305,-6.054zM56.482,43.475h-12.964l-6.421,-9.103h-36.86l2.97,4.179c0.737,1.036 2.363,1.875 3.635,1.875h30.254l12.894,18.205l12.914,-18.206h30.255c1.271,0 2.897,-0.839 3.635,-1.875l2.97,-4.179h-36.861zM57.79,33.538l-2.638,-3.536c-0.33,-0.443 -1.045,-0.802 -1.598,-0.802h-6.324l-2.104,11.225h9.734l-1.282,-6.887zM45.389,61.681l-6.504,9.119h22.227l-6.483,-9.119z" fill="#764BC4" class="fill c1"/></g><g transform="translate(271.607405577228,225.51522863818425)translate(12.43798828125,12.09375)rotate(0)translate(-12.43798828125,-12.09375)" opacity="1"><path transform="translate(6,19.0439453125)rotate(0)" d="M1.67 0L1.67-13.06L12.38-13.06L12.38-11.05L6.76-11.05L6.75-7.26L10.88-7.26L10.88-5.25L6.75-5.25L6.75 0L1.67 0Z" fill="#FFFFFF"/></g><g transform="translate(184.57943925233653,154.95080106809087)translate(99.7997329773031,82.83377837116151)rotate(0)translate(-99.7997329773031,-82.83377837116151) scale(0.9979973297730309,0.9979973297730309)" opacity="1"><defs class="defs"/><g>
    <path fill="#404040" d="M98.238,165.973c-1.192,0-2.349-0.245-3.438-0.726l-89.743-39.73C1.985,124.159,0,121.108,0,117.747V53.211&#10;&#9;&#9;c0-3.244,1.803-6.158,4.705-7.605L94.453,0.877c2.303-1.149,5.146-1.17,7.469-0.056l93.26,44.796&#10;&#9;&#9;c2.927,1.407,4.818,4.413,4.818,7.658v64.408c0,3.409-2.027,6.477-5.165,7.815l-93.262,39.793&#10;&#9;&#9;C100.512,165.744,99.39,165.973,98.238,165.973z M98.243,3.905c-0.704,0-1.409,0.167-2.039,0.481L6.455,49.116&#10;&#9;&#9;c-1.563,0.779-2.533,2.348-2.533,4.095v64.536c0,1.811,1.068,3.453,2.722,4.185l89.743,39.73c1.151,0.509,2.485,0.519,3.647,0.024&#10;&#9;&#9;l93.262-39.793c1.691-0.721,2.782-2.373,2.782-4.208V53.276c0-1.747-1.019-3.366-2.596-4.124L100.224,4.356&#10;&#9;&#9;C99.61,4.062,98.925,3.905,98.243,3.905z" class="color c1"/>
    <g>
      <path fill="#404040" d="M98.243,156.763L9.15,117.321V53.615l89.1-44.405l0.432,0.208l92.167,44.27v63.565L98.243,156.763z&#10;&#9;&#9;&#9; M11.11,116.044l87.148,38.581l90.63-38.668V54.92L98.266,11.393L11.11,54.829V116.044z" class="color c1"/>
    </g>
  </g></g></svg>